# xmcd
# 
# Track frame offsets:
#     163
#     35255
#     54070
#     77346
#     93379
#     115178
#     139462
#     158492
#     183641
#     220101
#     247902
#     278124
# 
# Disc length: 3957
# 
# Revision: 4
# Processed by: cddbd v1.5.2PL0 Copyright (c) Steve Scherf et al.
# Submitted via: fre:ac v1.0.31
# 
DISCID=940f730c
DTITLE=ERIC CLAPTON AND STEVE WINWOOD - LIVE FROM MADISON SQUARE GARDEN
DYEAR=2009
DGENRE=Blues
TTITLE0=HAD TO CRY TODAY - ERIC CLAPTON AND STEVE WINWOOD
TTITLE1=LOW DOWN - ERIC CLAPTON AND STEVE WINWOOD
TTITLE2=THEM CHANGES - ERIC CLAPTON AND STEVE WINWOOD
TTITLE3=FOREVER MAN - ERIC CLAPTON AND STEVE WINWOOD
TTITLE4=SLEEPING IN THE GROUND - ERIC CLAPTON AND STEVE WINWOOD
TTITLE5=PRESENCE OF THE LORD - ERIC CLAPTON AND STEVE WINWOOD
TTITLE6=GLAD - ERIC CLAPTON AND STEVE WINWOOD
TTITLE7=WELL ALL RIGHT - ERIC CLAPTON AND STEVE WINWOOD
TTITLE8=DOUBLE TROUBLE - ERIC CLAPTON AND STEVE WINWOOD
TTITLE9=PEARLY QUEEN - ERIC CLAPTON AND STEVE WINWOOD
TTITLE10=TELL THE TRUTH - ERIC CLAPTON AND STEVE WINWOOD
TTITLE11=NO FACE, NO NAME, NO NUMBER - ERIC CLAPTON AND STEVE WINWOOD
EXTD=CD1
EXTT0=
EXTT1=
EXTT2=
EXTT3=
EXTT4=
EXTT5=
EXTT6=
EXTT7=
EXTT8=
EXTT9=
EXTT10=
EXTT11=
PLAYORDER=
